<mxfile host="app.diagrams.net" modified="2022-07-18T04:20:51.492Z" agent="5.0 (Windows NT 10.0; Win64; x64) AppleWebKit/537.36 (KHTML, like Gecko) Chrome/80.0.3987.122 Safari/537.36" etag="UQUNZFeKd_H-DREf4LQn" version="20.1.1" type="github">
  <diagram id="qjP0iLe7DsiVe1p9cREq" name="Page-1">
    <mxGraphModel dx="1422" dy="794" grid="1" gridSize="10" guides="1" tooltips="1" connect="1" arrows="1" fold="1" page="1" pageScale="1" pageWidth="827" pageHeight="1169" math="0" shadow="0">
      <root>
        <mxCell id="0" />
        <mxCell id="1" parent="0" />
        <mxCell id="xh3n5V7uTA3OtfkAkPk8-11" style="edgeStyle=orthogonalEdgeStyle;rounded=0;orthogonalLoop=1;jettySize=auto;html=1;exitX=1;exitY=0.5;exitDx=0;exitDy=0;entryX=0;entryY=0.5;entryDx=0;entryDy=0;" edge="1" parent="1" source="xh3n5V7uTA3OtfkAkPk8-3" target="xh3n5V7uTA3OtfkAkPk8-5">
          <mxGeometry relative="1" as="geometry" />
        </mxCell>
        <mxCell id="xh3n5V7uTA3OtfkAkPk8-3" value="追玩业务" style="rounded=1;whiteSpace=wrap;html=1;" vertex="1" parent="1">
          <mxGeometry x="90" y="180" width="120" height="60" as="geometry" />
        </mxCell>
        <mxCell id="xh3n5V7uTA3OtfkAkPk8-4" value="追玩业务" style="rounded=1;whiteSpace=wrap;html=1;" vertex="1" parent="1">
          <mxGeometry x="90" y="290" width="120" height="60" as="geometry" />
        </mxCell>
        <object label="" id="xh3n5V7uTA3OtfkAkPk8-12">
          <mxCell style="edgeStyle=orthogonalEdgeStyle;rounded=0;orthogonalLoop=1;jettySize=auto;html=1;entryX=0;entryY=0.5;entryDx=0;entryDy=0;entryPerimeter=0;" edge="1" parent="1" target="xh3n5V7uTA3OtfkAkPk8-10">
            <mxGeometry relative="1" as="geometry">
              <mxPoint x="470" y="210" as="sourcePoint" />
            </mxGeometry>
          </mxCell>
        </object>
        <mxCell id="xh3n5V7uTA3OtfkAkPk8-5" value="追玩关注服务" style="rounded=1;whiteSpace=wrap;html=1;" vertex="1" parent="1">
          <mxGeometry x="354" y="180" width="120" height="60" as="geometry" />
        </mxCell>
        <mxCell id="xh3n5V7uTA3OtfkAkPk8-6" value="" style="rounded=1;whiteSpace=wrap;html=1;" vertex="1" parent="1">
          <mxGeometry x="354" y="290" width="120" height="60" as="geometry" />
        </mxCell>
        <mxCell id="xh3n5V7uTA3OtfkAkPk8-9" value="从SSDB" style="shape=cylinder3;whiteSpace=wrap;html=1;boundedLbl=1;backgroundOutline=1;size=15;" vertex="1" parent="1">
          <mxGeometry x="636" y="290" width="60" height="60" as="geometry" />
        </mxCell>
        <mxCell id="xh3n5V7uTA3OtfkAkPk8-10" value="主SSDB" style="shape=cylinder3;whiteSpace=wrap;html=1;boundedLbl=1;backgroundOutline=1;size=15;" vertex="1" parent="1">
          <mxGeometry x="630" y="180" width="60" height="60" as="geometry" />
        </mxCell>
        <mxCell id="xh3n5V7uTA3OtfkAkPk8-13" value="写" style="text;html=1;resizable=0;autosize=1;align=center;verticalAlign=middle;points=[];fillColor=none;strokeColor=none;rounded=0;" vertex="1" parent="1">
          <mxGeometry x="530" y="180" width="40" height="30" as="geometry" />
        </mxCell>
      </root>
    </mxGraphModel>
  </diagram>
</mxfile>
